<svg width="25" height="24" viewBox="0 0 25 24" fill="none" xmlns="http://www.w3.org/2000/svg">
<path d="M17.2084 2H20.2452C20.5136 2 20.7711 2.10536 20.9609 2.29289C21.1508 2.48043 21.2574 2.73478 21.2574 3V21C21.2574 21.2652 21.1508 21.5196 20.9609 21.7071C20.7711 21.8946 20.5136 22 20.2452 22H4.04903C3.78056 22 3.52309 21.8946 3.33326 21.7071C3.14342 21.5196 3.03677 21.2652 3.03677 21V3C3.03677 2.73478 3.14342 2.48043 3.33326 2.29289C3.52309 2.10536 3.78056 2 4.04903 2H7.0858V0H9.11032V2H15.1839V0H17.2084V2ZM17.2084 4V6H15.1839V4H9.11032V6H7.0858V4H5.06129V20H19.2329V4H17.2084ZM7.0858 8H17.2084V10H7.0858V8ZM7.0858 12H17.2084V14H7.0858V12Z" fill="#3F3E3E"/>
</svg>
