<svg width="39" height="35" viewBox="0 0 39 35" fill="none" xmlns="http://www.w3.org/2000/svg">
<rect x="1" y="1" width="34" height="33" rx="9" stroke="#F34723" stroke-width="2"/>
<path d="M18.5689 29C18.3012 29 18.0502 28.9473 17.8159 28.8421C17.5817 28.7369 17.3642 28.5598 17.1634 28.3109L8.5291 17.5369C8.16098 17.0775 7.98494 16.482 8.00101 15.7504C8.01707 15.0188 8.20984 14.4241 8.5793 13.9664C8.94743 13.5071 9.41595 13.2774 9.98488 13.2774C10.5538 13.2774 11.0223 13.5071 11.3905 13.9664L18.5689 22.9239L35.5865 1.68904C35.9546 1.22968 36.4318 1 37.0181 1C37.6045 1 38.081 1.22968 38.4478 1.68904C38.8159 2.1484 39 2.74389 39 3.47552C39 4.20715 38.8159 4.80181 38.4478 5.2595L19.9745 28.3109C19.7737 28.5615 19.5562 28.7394 19.3219 28.8446C19.0877 28.9499 18.8367 29.0016 18.5689 29Z" fill="#F34723"/>
</svg>
