<svg width="31" height="28" viewBox="0 0 31 28" fill="none" xmlns="http://www.w3.org/2000/svg">
<path id="Vector" d="M10.5689 28C10.3012 28 10.0502 27.9473 9.81595 27.8421C9.58169 27.7369 9.36416 27.5598 9.16336 27.3109L0.529103 16.5369C0.160976 16.0775 -0.0150563 15.482 0.00100748 14.7504C0.0170712 14.0188 0.209835 13.4241 0.579301 12.9664C0.947428 12.5071 1.41595 12.2774 1.98488 12.2774C2.5538 12.2774 3.02233 12.5071 3.39045 12.9664L10.5689 21.9239L27.5865 0.689037C27.9546 0.229679 28.4318 0 29.0181 0C29.6045 0 30.081 0.229679 30.4478 0.689037C30.8159 1.1484 31 1.74389 31 2.47552C31 3.20715 30.8159 3.80181 30.4478 4.2595L11.9745 27.3109C11.7737 27.5615 11.5562 27.7394 11.3219 27.8446C11.0877 27.9499 10.8367 28.0016 10.5689 28Z" fill="#F34723"/>
</svg>
