<svg width="144" height="24" viewBox="0 0 144 24" fill="none" xmlns="http://www.w3.org/2000/svg">
<path d="M44.4918 3.11719L43.8082 4.85547H43.6715C43.6976 4.7513 43.7106 4.61133 43.7106 4.43555C43.7106 4.28581 43.6552 4.19141 43.5446 4.15234C43.4404 4.10677 43.2711 4.08398 43.0367 4.08398H39.277V16.3984C39.277 16.9062 39.316 17.2546 39.3942 17.4434C39.4788 17.6257 39.5895 17.7428 39.7262 17.7949C39.8694 17.8405 40.0973 17.8633 40.4098 17.8633V18H36.5133V17.8633C37.0016 17.8307 37.3076 17.7363 37.4313 17.5801C37.555 17.4238 37.6168 17.0983 37.6168 16.6035V4.08398H34.0133C33.6487 4.08398 33.4111 4.10677 33.3004 4.15234C33.1897 4.19141 33.1344 4.29557 33.1344 4.46484C33.1344 4.54948 33.1604 4.67969 33.2125 4.85547H33.0758L32.3922 3.11719H32.5289C32.6461 3.35156 32.7601 3.49479 32.8707 3.54688C32.9879 3.59245 33.2353 3.61523 33.6129 3.61523H43.1735C43.5511 3.61523 43.8212 3.59245 43.984 3.54688C44.1533 3.49479 44.277 3.35156 44.3551 3.11719H44.4918ZM52.441 3.40039C54.4593 3.40039 56.1097 4.01562 57.3922 5.24609C58.6748 6.47005 59.316 8 59.316 9.83594C59.316 12.1992 58.5739 14.1882 57.0895 15.8027C55.6051 17.4173 53.6357 18.2246 51.1813 18.2246C49.1891 18.2246 47.5582 17.5736 46.2887 16.2715C45.0192 14.9694 44.3844 13.4069 44.3844 11.584C44.3844 10.3535 44.6904 9.09049 45.3024 7.79492C45.9143 6.49935 46.8356 5.44466 48.066 4.63086C49.2965 3.81055 50.7548 3.40039 52.441 3.40039ZM52.3824 17.4629C53.372 17.4629 54.3486 17.1992 55.3121 16.6719C56.2757 16.138 57.0341 15.4056 57.5875 14.4746C58.1409 13.5436 58.4176 12.5866 58.4176 11.6035C58.4176 10.2103 58.0433 8.94401 57.2946 7.80469C56.5524 6.66536 55.5856 5.77344 54.3942 5.12891C53.2093 4.48438 52.1123 4.16211 51.1031 4.16211C49.6774 4.16211 48.3818 4.69922 47.2164 5.77344C46.0576 6.84766 45.4781 8.18229 45.4781 9.77734C45.4781 11.8151 46.1878 13.6055 47.6071 15.1484C49.0263 16.6914 50.6181 17.4629 52.3824 17.4629ZM60.4293 11.2227V10.4023H64.5504V11.2227H60.4293ZM65.7516 3.76172V3.61523H72.3531C74.0328 3.61523 75.3577 3.7487 76.3278 4.01562C77.3043 4.27604 78.1539 4.68945 78.8766 5.25586C79.5992 5.82227 80.1722 6.54818 80.5953 7.43359C81.0185 8.3125 81.2301 9.29557 81.2301 10.3828C81.2301 11.431 81.0087 12.4629 80.566 13.4785C80.1298 14.4876 79.5341 15.36 78.7789 16.0957C78.0237 16.8249 77.2262 17.3262 76.3864 17.5996C75.553 17.8665 74.2607 18 72.5094 18H65.7516V17.8633H65.9274C66.2789 17.8633 66.5101 17.7233 66.6207 17.4434C66.7314 17.1569 66.7867 16.6426 66.7867 15.9004V5.42188C66.7867 4.64062 66.7184 4.16862 66.5817 4.00586C66.4515 3.8431 66.1748 3.76172 65.7516 3.76172ZM70.6539 3.91797H68.4469V15.0801C68.4469 15.7832 68.5641 16.3073 68.7985 16.6523C69.0393 16.9909 69.4462 17.2383 70.0192 17.3945C70.5921 17.5443 71.3636 17.6191 72.3336 17.6191C75.0289 17.6191 76.9202 16.929 78.0074 15.5488C79.1012 14.1621 79.6481 12.6517 79.6481 11.0176C79.6481 9.09701 78.8994 7.43359 77.402 6.02734C75.9111 4.62109 73.6617 3.91797 70.6539 3.91797ZM90.6051 3.40039C92.6233 3.40039 94.2737 4.01562 95.5563 5.24609C96.8388 6.47005 97.4801 8 97.4801 9.83594C97.4801 12.1992 96.7379 14.1882 95.2535 15.8027C93.7692 17.4173 91.7998 18.2246 89.3453 18.2246C87.3531 18.2246 85.7223 17.5736 84.4528 16.2715C83.1832 14.9694 82.5485 13.4069 82.5485 11.584C82.5485 10.3535 82.8545 9.09049 83.4664 7.79492C84.0784 6.49935 84.9996 5.44466 86.2301 4.63086C87.4606 3.81055 88.9189 3.40039 90.6051 3.40039ZM90.5465 17.4629C91.5361 17.4629 92.5127 17.1992 93.4762 16.6719C94.4397 16.138 95.1982 15.4056 95.7516 14.4746C96.305 13.5436 96.5817 12.5866 96.5817 11.6035C96.5817 10.2103 96.2073 8.94401 95.4586 7.80469C94.7164 6.66536 93.7496 5.77344 92.5582 5.12891C91.3733 4.48438 90.2763 4.16211 89.2672 4.16211C87.8414 4.16211 86.5459 4.69922 85.3805 5.77344C84.2216 6.84766 83.6422 8.18229 83.6422 9.77734C83.6422 11.8151 84.3518 13.6055 85.7711 15.1484C87.1904 16.6914 88.7822 17.4629 90.5465 17.4629ZM104.218 18V17.8633C104.668 17.8633 104.957 17.7786 105.088 17.6094C105.224 17.4401 105.293 17.1504 105.293 16.7402V4.96289C105.293 4.54622 105.241 4.24674 105.136 4.06445C105.032 3.87565 104.72 3.77474 104.199 3.76172V3.61523H108.056V3.76172C107.698 3.76172 107.448 3.80729 107.304 3.89844C107.161 3.98958 107.067 4.09701 107.021 4.2207C106.976 4.3444 106.953 4.62435 106.953 5.06055V15.1582C106.953 16.0241 107.161 16.6361 107.578 16.9941C107.994 17.3457 108.707 17.5215 109.716 17.5215H111.474C112.321 17.5215 112.939 17.3132 113.33 16.8965C113.727 16.4798 113.948 15.6953 113.994 14.543H114.13V18H104.218ZM119.336 3.61523V3.76172C119.147 3.74219 118.935 3.77148 118.701 3.84961C118.473 3.92773 118.336 4.04167 118.291 4.19141C118.252 4.34115 118.232 4.69596 118.232 5.25586V16.3008C118.232 16.8997 118.255 17.2676 118.3 17.4043C118.352 17.5345 118.447 17.6452 118.584 17.7363C118.727 17.821 118.977 17.8633 119.336 17.8633V18H115.498V17.8633C115.979 17.8633 116.279 17.7721 116.396 17.5898C116.513 17.401 116.572 16.9779 116.572 16.3203V5.38281C116.572 4.69922 116.507 4.25326 116.377 4.04492C116.246 3.83008 115.953 3.73568 115.498 3.76172V3.61523H119.336ZM127.685 3.80078L128.369 5.59766L128.252 5.61719C128.252 5.61068 128.069 5.41862 127.705 5.04102C127.347 4.66341 126.933 4.3737 126.464 4.17188C126.002 3.96354 125.478 3.85938 124.892 3.85938C123.909 3.85938 123.128 4.14258 122.548 4.70898C121.976 5.26888 121.689 5.94596 121.689 6.74023C121.689 7.26758 121.823 7.72982 122.089 8.12695C122.363 8.51758 122.929 8.88216 123.789 9.2207C125.267 9.71549 126.276 10.0898 126.816 10.3438C127.363 10.5911 127.887 11.0143 128.388 11.6133C128.896 12.2122 129.15 12.9805 129.15 13.918C129.15 14.3086 129.104 14.6829 129.013 15.041C128.922 15.3926 128.776 15.7344 128.574 16.0664C128.372 16.3919 128.128 16.6914 127.841 16.9648C127.561 17.2318 127.275 17.4368 126.982 17.5801C126.689 17.7168 126.227 17.821 125.595 17.8926C124.964 17.9642 124.547 18 124.345 18H120.507V13.8203H120.654C120.667 15.207 120.992 16.1738 121.63 16.7207C122.269 17.2676 123.261 17.541 124.609 17.541C125.833 17.541 126.761 17.2513 127.392 16.6719C128.03 16.0924 128.349 15.3958 128.349 14.582C128.349 14.0872 128.239 13.6673 128.017 13.3223C127.796 12.9707 127.487 12.6647 127.089 12.4043C126.692 12.1374 125.94 11.8151 124.834 11.4375C123.733 11.0534 122.959 10.7181 122.509 10.4316C122.067 10.1387 121.696 9.70247 121.396 9.12305C121.097 8.53711 120.947 7.94141 120.947 7.33594C120.947 6.22266 121.328 5.28841 122.089 4.5332C122.858 3.77799 123.864 3.40039 125.107 3.40039C125.589 3.40039 126.11 3.45573 126.67 3.56641C127.229 3.67708 127.542 3.7487 127.607 3.78125C127.633 3.79427 127.659 3.80078 127.685 3.80078ZM141.699 3.11719L141.015 4.85547H140.879C140.905 4.7513 140.918 4.61133 140.918 4.43555C140.918 4.28581 140.862 4.19141 140.752 4.15234C140.647 4.10677 140.478 4.08398 140.244 4.08398H136.484V16.3984C136.484 16.9062 136.523 17.2546 136.601 17.4434C136.686 17.6257 136.797 17.7428 136.933 17.7949C137.076 17.8405 137.304 17.8633 137.617 17.8633V18H133.72V17.8633C134.209 17.8307 134.515 17.7363 134.638 17.5801C134.762 17.4238 134.824 17.0983 134.824 16.6035V4.08398H131.22C130.856 4.08398 130.618 4.10677 130.507 4.15234C130.397 4.19141 130.341 4.29557 130.341 4.46484C130.341 4.54948 130.367 4.67969 130.42 4.85547H130.283L129.599 3.11719H129.736C129.853 3.35156 129.967 3.49479 130.078 3.54688C130.195 3.59245 130.442 3.61523 130.82 3.61523H140.38C140.758 3.61523 141.028 3.59245 141.191 3.54688C141.36 3.49479 141.484 3.35156 141.562 3.11719H141.699Z" fill="#3F3E3E"/>
<path d="M17.2084 2H20.2452C20.5136 2 20.7711 2.10536 20.9609 2.29289C21.1508 2.48043 21.2574 2.73478 21.2574 3V21C21.2574 21.2652 21.1508 21.5196 20.9609 21.7071C20.7711 21.8946 20.5136 22 20.2452 22H4.04903C3.78056 22 3.52309 21.8946 3.33326 21.7071C3.14342 21.5196 3.03677 21.2652 3.03677 21V3C3.03677 2.73478 3.14342 2.48043 3.33326 2.29289C3.52309 2.10536 3.78056 2 4.04903 2H7.0858V0H9.11032V2H15.1839V0H17.2084V2ZM17.2084 4V6H15.1839V4H9.11032V6H7.0858V4H5.06129V20H19.2329V4H17.2084ZM7.0858 8H17.2084V10H7.0858V8ZM7.0858 12H17.2084V14H7.0858V12Z" fill="#3F3E3E"/>
</svg>
