<svg width="110" height="16" viewBox="0 0 110 16" fill="none" xmlns="http://www.w3.org/2000/svg">
<path d="M12.4919 0.117188L11.8083 1.85547H11.6715C11.6976 1.7513 11.7106 1.61133 11.7106 1.43555C11.7106 1.28581 11.6553 1.19141 11.5446 1.15234C11.4404 1.10677 11.2712 1.08398 11.0368 1.08398H7.27702V13.3984C7.27702 13.9062 7.31608 14.2546 7.3942 14.4434C7.47884 14.6257 7.58952 14.7428 7.72623 14.7949C7.86946 14.8405 8.09733 14.8633 8.40983 14.8633V15H4.51334V14.8633C5.00163 14.8307 5.30761 14.7363 5.43131 14.5801C5.55501 14.4238 5.61686 14.0983 5.61686 13.6035V1.08398H2.01334C1.64876 1.08398 1.41113 1.10677 1.30045 1.15234C1.18978 1.19141 1.13444 1.29557 1.13444 1.46484C1.13444 1.54948 1.16048 1.67969 1.21256 1.85547H1.07584L0.39225 0.117188H0.528969C0.646156 0.351562 0.760089 0.494792 0.870766 0.546875C0.987953 0.592448 1.23535 0.615234 1.61295 0.615234H11.1735C11.5511 0.615234 11.8213 0.592448 11.984 0.546875C12.1533 0.494792 12.277 0.351562 12.3551 0.117188H12.4919ZM20.4411 0.400391C22.4593 0.400391 24.1097 1.01562 25.3923 2.24609C26.6748 3.47005 27.3161 5 27.3161 6.83594C27.3161 9.19922 26.5739 11.1882 25.0895 12.8027C23.6051 14.4173 21.6357 15.2246 19.1813 15.2246C17.1891 15.2246 15.5583 14.5736 14.2887 13.2715C13.0192 11.9694 12.3844 10.4069 12.3844 8.58398C12.3844 7.35352 12.6904 6.09049 13.3024 4.79492C13.9144 3.49935 14.8356 2.44466 16.0661 1.63086C17.2965 0.810547 18.7549 0.400391 20.4411 0.400391ZM20.3825 14.4629C21.3721 14.4629 22.3486 14.1992 23.3122 13.6719C24.2757 13.138 25.0342 12.4056 25.5876 11.4746C26.1409 10.5436 26.4176 9.58659 26.4176 8.60352C26.4176 7.21029 26.0433 5.94401 25.2946 4.80469C24.5524 3.66536 23.5856 2.77344 22.3942 2.12891C21.2093 1.48438 20.1123 1.16211 19.1032 1.16211C17.6774 1.16211 16.3818 1.69922 15.2165 2.77344C14.0576 3.84766 13.4782 5.18229 13.4782 6.77734C13.4782 8.8151 14.1878 10.6055 15.6071 12.1484C17.0264 13.6914 18.6182 14.4629 20.3825 14.4629ZM28.4294 8.22266V7.40234H32.5505V8.22266H28.4294ZM33.7516 0.761719V0.615234H40.3532C42.0329 0.615234 43.3577 0.748698 44.3278 1.01562C45.3044 1.27604 46.154 1.68945 46.8766 2.25586C47.5993 2.82227 48.1722 3.54818 48.5954 4.43359C49.0186 5.3125 49.2301 6.29557 49.2301 7.38281C49.2301 8.43099 49.0088 9.46289 48.5661 10.4785C48.1299 11.4876 47.5342 12.36 46.779 13.0957C46.0238 13.8249 45.2262 14.3262 44.3864 14.5996C43.5531 14.8665 42.2607 15 40.5094 15H33.7516V14.8633H33.9274C34.279 14.8633 34.5101 14.7233 34.6208 14.4434C34.7314 14.1569 34.7868 13.6426 34.7868 12.9004V2.42188C34.7868 1.64062 34.7184 1.16862 34.5817 1.00586C34.4515 0.843099 34.1748 0.761719 33.7516 0.761719ZM38.654 0.917969H36.4469V12.0801C36.4469 12.7832 36.5641 13.3073 36.7985 13.6523C37.0394 13.9909 37.4463 14.2383 38.0192 14.3945C38.5921 14.5443 39.3636 14.6191 40.3337 14.6191C43.029 14.6191 44.9202 13.929 46.0075 12.5488C47.1012 11.1621 47.6481 9.65169 47.6481 8.01758C47.6481 6.09701 46.8994 4.43359 45.402 3.02734C43.9111 1.62109 41.6618 0.917969 38.654 0.917969ZM58.6051 0.400391C60.6234 0.400391 62.2738 1.01562 63.5563 2.24609C64.8389 3.47005 65.4801 5 65.4801 6.83594C65.4801 9.19922 64.738 11.1882 63.2536 12.8027C61.7692 14.4173 59.7998 15.2246 57.3454 15.2246C55.3532 15.2246 53.7223 14.5736 52.4528 13.2715C51.1833 11.9694 50.5485 10.4069 50.5485 8.58398C50.5485 7.35352 50.8545 6.09049 51.4665 4.79492C52.0784 3.49935 52.9997 2.44466 54.2301 1.63086C55.4606 0.810547 56.9189 0.400391 58.6051 0.400391ZM58.5465 14.4629C59.5361 14.4629 60.5127 14.1992 61.4762 13.6719C62.4398 13.138 63.1982 12.4056 63.7516 11.4746C64.305 10.5436 64.5817 9.58659 64.5817 8.60352C64.5817 7.21029 64.2074 5.94401 63.4587 4.80469C62.7165 3.66536 61.7497 2.77344 60.5583 2.12891C59.3734 1.48438 58.2764 1.16211 57.2673 1.16211C55.8415 1.16211 54.5459 1.69922 53.3805 2.77344C52.2217 3.84766 51.6423 5.18229 51.6423 6.77734C51.6423 8.8151 52.3519 10.6055 53.7712 12.1484C55.1904 13.6914 56.7822 14.4629 58.5465 14.4629ZM72.2184 15V14.8633C72.6676 14.8633 72.9574 14.7786 73.0876 14.6094C73.2243 14.4401 73.2926 14.1504 73.2926 13.7402V1.96289C73.2926 1.54622 73.2406 1.24674 73.1364 1.06445C73.0322 0.875651 72.7197 0.77474 72.1989 0.761719V0.615234H76.0563V0.761719C75.6982 0.761719 75.4476 0.807292 75.3044 0.898438C75.1611 0.989583 75.0667 1.09701 75.0212 1.2207C74.9756 1.3444 74.9528 1.62435 74.9528 2.06055V12.1582C74.9528 13.0241 75.1611 13.6361 75.5778 13.9941C75.9945 14.3457 76.7074 14.5215 77.7165 14.5215H79.4743C80.3206 14.5215 80.9391 14.3132 81.3298 13.8965C81.7269 13.4798 81.9482 12.6953 81.9938 11.543H82.1305V15H72.2184ZM87.3356 0.615234V0.761719C87.1468 0.742188 86.9352 0.771484 86.7008 0.849609C86.473 0.927734 86.3363 1.04167 86.2907 1.19141C86.2516 1.34115 86.2321 1.69596 86.2321 2.25586V13.3008C86.2321 13.8997 86.2549 14.2676 86.3005 14.4043C86.3525 14.5345 86.4469 14.6452 86.5837 14.7363C86.7269 14.821 86.9775 14.8633 87.3356 14.8633V15H83.4977V14.8633C83.9795 14.8633 84.279 14.7721 84.3962 14.5898C84.5133 14.401 84.5719 13.9779 84.5719 13.3203V2.38281C84.5719 1.69922 84.5068 1.25326 84.3766 1.04492C84.2464 0.830078 83.9534 0.735677 83.4977 0.761719V0.615234H87.3356ZM95.6852 0.800781L96.3688 2.59766L96.2516 2.61719C96.2516 2.61068 96.0693 2.41862 95.7048 2.04102C95.3467 1.66341 94.9333 1.3737 94.4645 1.17188C94.0023 0.963542 93.4782 0.859375 92.8923 0.859375C91.9092 0.859375 91.1279 1.14258 90.5485 1.70898C89.9756 2.26888 89.6891 2.94596 89.6891 3.74023C89.6891 4.26758 89.8226 4.72982 90.0895 5.12695C90.363 5.51758 90.9294 5.88216 91.7887 6.2207C93.2666 6.71549 94.2757 7.08984 94.8161 7.34375C95.363 7.59115 95.887 8.01432 96.3883 8.61328C96.8962 9.21224 97.1501 9.98047 97.1501 10.918C97.1501 11.3086 97.1045 11.6829 97.0133 12.041C96.9222 12.3926 96.7757 12.7344 96.5739 13.0664C96.3721 13.3919 96.1279 13.6914 95.8415 13.9648C95.5615 14.2318 95.2751 14.4368 94.9821 14.5801C94.6891 14.7168 94.2269 14.821 93.5954 14.8926C92.9639 14.9642 92.5472 15 92.3454 15H88.5075V10.8203H88.654C88.667 12.207 88.9925 13.1738 89.6305 13.7207C90.2686 14.2676 91.2614 14.541 92.609 14.541C93.833 14.541 94.7607 14.2513 95.3923 13.6719C96.0303 13.0924 96.3493 12.3958 96.3493 11.582C96.3493 11.0872 96.2386 10.6673 96.0173 10.3223C95.7959 9.9707 95.4867 9.66471 95.0895 9.4043C94.6924 9.13737 93.9404 8.8151 92.8337 8.4375C91.7334 8.05339 90.9587 7.7181 90.5094 7.43164C90.0667 7.13867 89.6956 6.70247 89.3962 6.12305C89.0967 5.53711 88.9469 4.94141 88.9469 4.33594C88.9469 3.22266 89.3278 2.28841 90.0895 1.5332C90.8577 0.777995 91.8636 0.400391 93.1071 0.400391C93.5889 0.400391 94.1097 0.455729 94.6696 0.566406C95.2295 0.677083 95.542 0.748698 95.6071 0.78125C95.6331 0.794271 95.6592 0.800781 95.6852 0.800781ZM109.699 0.117188L109.015 1.85547H108.879C108.905 1.7513 108.918 1.61133 108.918 1.43555C108.918 1.28581 108.862 1.19141 108.752 1.15234C108.647 1.10677 108.478 1.08398 108.244 1.08398H104.484V13.3984C104.484 13.9062 104.523 14.2546 104.601 14.4434C104.686 14.6257 104.797 14.7428 104.933 14.7949C105.076 14.8405 105.304 14.8633 105.617 14.8633V15H101.72V14.8633C102.209 14.8307 102.515 14.7363 102.638 14.5801C102.762 14.4238 102.824 14.0983 102.824 13.6035V1.08398H99.2204C98.8558 1.08398 98.6182 1.10677 98.5075 1.15234C98.3968 1.19141 98.3415 1.29557 98.3415 1.46484C98.3415 1.54948 98.3675 1.67969 98.4196 1.85547H98.2829L97.5993 0.117188H97.736C97.8532 0.351562 97.9671 0.494792 98.0778 0.546875C98.195 0.592448 98.4424 0.615234 98.82 0.615234H108.381C108.758 0.615234 109.028 0.592448 109.191 0.546875C109.36 0.494792 109.484 0.351562 109.562 0.117188H109.699Z" fill="#3F3E3E"/>
</svg>
