<svg width="385" height="354" viewBox="0 0 385 354" fill="none" xmlns="http://www.w3.org/2000/svg">
<path d="M91.3979 341.099C112.884 362.985 164.092 353.482 186.004 338.714C257.155 290.794 381.953 210.854 384.971 99.5621C386.258 52.2357 344.546 28.469 327.195 21.6026C285.483 5.15223 240.159 1.04863 195.456 0.139716C148.756 -0.760197 98.7641 2.10152 57.3271 26.2372C41.6274 35.3803 26.8862 46.9352 16.9907 62.5217C6.92655 78.2881 1.34424 96.9433 0.243747 115.671C-1.59336 145.872 7.14842 175.893 19.9105 203.241C32.6727 230.589 49.4285 255.796 64.8797 281.686C74.9527 298.587 73.2931 322.659 91.3979 341.099Z" fill="#F7A9A0" fill-opacity="0.28"/>
</svg>
