<svg width="33" height="33" viewBox="0 0 33 33" fill="none" xmlns="http://www.w3.org/2000/svg">
<path d="M0 16.5C0 7.3873 7.3873 0 16.5 0C25.6127 0 33 7.3873 33 16.5C33 25.6127 25.6127 33 16.5 33C7.3873 33 0 25.6127 0 16.5Z" fill="#005FF9"/>
<path fill-rule="evenodd" clip-rule="evenodd" d="M6.875 16.4727C6.875 11.1805 11.1927 6.875 16.4999 6.875C21.8071 6.875 26.1248 11.1805 26.1248 16.4727C26.1248 17.2224 26.0622 17.8293 25.922 18.4385L25.92 18.4486C25.9196 18.4504 25.8501 18.7313 25.8116 18.8538C25.5738 19.6124 25.1431 20.2443 24.5661 20.681C24.0066 21.1047 23.3127 21.338 22.6126 21.338C22.5261 21.338 22.439 21.3345 22.3537 21.3277C21.3594 21.2481 20.4851 20.7263 19.9491 19.8944C19.027 20.8189 17.8038 21.3275 16.4999 21.3275C13.8154 21.3275 11.6314 19.1496 11.6314 16.4727C11.6314 13.7958 13.8154 11.618 16.4999 11.618C19.1843 11.618 21.3683 13.7958 21.3683 16.4727V18.0377C21.3723 18.9508 21.9868 19.324 22.5118 19.3663C23.0341 19.4064 23.7292 19.1031 23.9713 18.1129C24.0908 17.5699 24.1515 17.0179 24.1515 16.4727C24.1515 12.2655 20.719 8.84271 16.4999 8.84271C12.2808 8.84271 8.84833 12.2655 8.84833 16.4727C8.84833 20.6799 12.2808 24.1027 16.4999 24.1027C17.9685 24.1027 19.3968 23.6845 20.6305 22.8931L20.6525 22.8789L21.9492 24.3822L21.9214 24.4012C20.319 25.4932 18.4442 26.0705 16.4999 26.0705C11.1927 26.0705 6.875 21.7649 6.875 16.4727ZM16.4999 19.3597C18.0962 19.3597 19.395 18.0646 19.395 16.4727C19.395 14.8808 18.0962 13.5858 16.4999 13.5858C14.9035 13.5858 13.6047 14.8808 13.6047 16.4727C13.6047 18.0646 14.9035 19.3597 16.4999 19.3597Z" fill="#FF9E00"/>
</svg>
